Coordinates
version=1
nRows=8
nColumns=36
inDegrees=yes

Units are S.I. units (second, meters, Newtons, ...)
If the header above contains a line with 'inDegrees', this indicates whether rotational values are in degrees (yes) or radians (no).

endheader
time	pelvis_tilt	pelvis_list	pelvis_rotation	pelvis_tx	pelvis_ty	pelvis_tz	hip_flexion_r	hip_adduction_r	hip_rotation_r	knee_angle_r	knee_angle_r_beta	ankle_angle_r	subtalar_angle_r	mtp_angle_r	hip_flexion_l	hip_adduction_l	hip_rotation_l	knee_angle_l	knee_angle_l_beta	ankle_angle_l	subtalar_angle_l	mtp_angle_l	lumbar_extension	lumbar_bending	lumbar_rotation	arm_flex_r	arm_add_r	arm_rot_r	elbow_flex_r	pro_sup_r	arm_flex_l	arm_add_l	arm_rot_l	elbow_flex_l	pro_sup_l
      3.25000000	    -40.87596744	     -0.61576749	     -0.09756377	     -0.36730584	      0.72027100	     -0.68992897	     95.41962215	    -16.16207087	     -3.04311909	     69.54016690	      1.21370487	     22.27213154	      7.96967590	     -7.49999987	     95.50211542	    -14.58783052	     -3.75006331	     68.80466675	      1.20086798	     20.96730919	      1.68625289	     -7.49999987	    -24.70999011	     -1.59537062	      0.44798857	    123.25877052	    -26.16603069	     35.32534203	     94.99936798	     99.69895958	    120.85899395	    -25.71836686	     32.35117249	     96.61383884	    102.92247337
      3.26000000	    -40.62847490	     -0.60982352	     -0.00328225	     -0.36749664	      0.71513098	     -0.69031712	     96.00915588	    -16.43896357	     -2.84690601	     70.78810312	      1.23548547	     22.41589363	      7.89097746	     -7.49999987	     96.09454902	    -14.67684916	     -3.70669537	     70.06836754	      1.22292372	     21.05552677	      1.67628903	     -7.49999987	    -25.38559708	     -1.53563280	      0.30217550	    123.54688224	    -25.90008576	     35.27376515	     95.17935516	     99.70049740	    121.23790333	    -25.40602381	     32.26485463	     96.73823453	    102.91887341
      3.27000000	    -39.92931911	     -0.47316620	      0.15412043	     -0.36745666	      0.71039677	     -0.69063897	     96.24257042	    -16.82807854	     -2.51897492	     72.22236497	      1.26051806	     23.43787990	      8.28186541	     -7.49999987	     96.14291649	    -14.75175118	     -3.84058340	     71.36829667	      1.24561176	     21.96093298	      2.25154374	     -7.49999987	    -26.69969301	     -1.64271626	      0.03133269	    124.30780942	    -25.80335065	     35.46945988	     95.00875482	     99.64318434	    122.35266688	    -25.20337839	     32.63443208	     96.30490601	    102.82630766
      3.28000000	    -39.71452154	     -0.52176724	      0.21330821	     -0.36768873	      0.70492535	     -0.69069101	     96.86842493	    -16.98863176	     -2.27185118	     73.49451850	      1.28272133	     23.58307833	      8.23596394	     -7.49999987	     96.79085668	    -14.89841362	     -3.70012637	     72.60686162	      1.26722879	     22.13691177	      2.18062129	     -7.49999987	    -27.27557907	     -1.56844476	     -0.04469588	    124.58757728	    -25.59858919	     35.40656418	     95.21680089	     99.65056036	    122.68397796	    -24.96037633	     32.62955197	     96.42180143	    102.83137940
      3.29000000	    -39.27546452	     -0.54306892	      0.33745245	     -0.36793754	      0.69951670	     -0.69097738	     97.31039914	    -17.30363554	     -2.08307466	     74.87416430	      1.30680069	     24.58051551	      8.46254239	     -7.49999987	     97.20707622	    -14.94743727	     -3.57127493	     73.91024660	      1.28997715	     23.23348176	      2.30260527	     -7.49999987	    -28.20157138	     -1.53084103	     -0.20849156	    125.30709509	    -25.68631330	     35.68043784	     95.19316165	     99.62291504	    123.68546234	    -24.86965725	     33.26689067	     96.04875469	    102.83167060
      3.30000000	    -39.12930681	     -0.56330034	      0.42797823	     -0.36831497	      0.69368639	     -0.69138951	     98.05530031	    -17.55618321	     -1.88720950	     76.14939153	      1.32905761	     24.81802694	      8.35796335	     -7.49999987	     97.94201820	    -14.97657311	     -3.42105517	     75.18667507	      1.31225503	     23.48200511	      2.20839476	     -7.49999987	    -28.68824888	     -1.42237280	     -0.34253606	    125.65663806	    -25.54622327	     35.66843872	     95.34151446	     99.61976413	    124.15147117	    -24.67859498	     33.23955745	     96.07165893	    102.84172664
      3.31000000	    -38.81290316	     -0.53239571	      0.59081844	     -0.36854640	      0.68807045	     -0.69186068	     98.61005002	    -17.83054717	     -1.56416012	     77.43476182	      1.35149155	     25.60470487	      8.25642344	     -7.49999987	     98.45863222	    -14.93517665	     -3.33520241	     76.43695127	      1.33407647	     24.25872669	      2.24858115	     -7.49999987	    -29.40255016	     -1.36492517	     -0.57299186	    126.24425958	    -25.46055006	     36.00547761	     95.31392637	     99.57931465	    125.01495203	    -24.48764968	     33.63117334	     95.74287595	    102.87452264
      3.32000000	    -38.60622937	     -0.53109749	      0.67191716	     -0.36868285	      0.68231603	     -0.69223203	     99.27004674	    -17.96403495	     -1.23929086	     78.68154530	      1.37325203	     25.79016054	      8.12708428	     -7.49999987	     99.13500571	    -14.98767092	     -3.22494368	     77.73032657	      1.35665013	     24.43693784	      2.17646887	     -7.49999987	    -29.92081242	     -1.28691971	     -0.69357353	    126.55407844	    -25.30085256	     35.97532717	     95.48705330	     99.57988313	    125.44829244	    -24.29668811	     33.56497628	     95.77526195	    102.88214141
